<?xml version="1.0" encoding="UTF-8"?>
<!-- Created with Inkscape (http://www.inkscape.org/) -->
<svg width="304.08" height="85.568" version="1.1" viewBox="0 0 304.08 85.568" xmlns="http://www.w3.org/2000/svg">
 <g transform="matrix(.99626 0 0 1 -224.34 -11.74)">
  <g transform="matrix(.7112 0 0 .66295 213.08 -22.591)" fill-opacity="0" stroke="#af16e3" stroke-width="9.0153">
   <rect x="94.907" y="105.42" width="47.824" height="47.824" ry="9.8801"/>
   <path d="m107.29 106.92v-16.148c0-14.995 23.055-14.975 23.055 0v16.177"/>
  </g>
  <path d="m225.18 97.309v-67.104h6.72l0.864 7.2h0.672q2.592-4.224 6.624-6.24 4.032-2.112 9.12-2.112 6.336 0 10.752 2.784t6.816 8.736q2.4 5.856 2.4 15.264 0 8.832-2.496 14.688-2.4 5.76-6.816 8.544t-10.272 2.784q-3.264 0-6.144-0.768t-5.184-2.4q-2.304-1.728-4.032-4.32h-0.576v22.944zm21.696-22.848q4.704 0 7.68-1.824 2.976-1.92 4.416-5.856 1.44-4.032 1.44-10.272v-2.016q0-6.624-1.536-10.56-1.536-4.032-4.512-5.76-2.88-1.728-7.2-1.728-4.704 0-7.776 2.112-2.976 2.016-4.416 6.144-1.344 4.128-1.344 10.08v1.44q0 5.28 0.96 8.832 1.056 3.456 2.88 5.568 1.92 2.112 4.32 2.976t5.088 0.864z" fill="#af16e3" aria-label="p"/>
  <path d="m326.02 81.916v-69.408h8.448v69.408zm23.616 0v-43.392h-7.488v-7.104h7.488v-8.064q0-2.976 0.864-5.568 0.864-2.688 3.264-4.32 2.4-1.728 6.72-1.728 1.344 0 2.592 0.192 1.344 0.096 2.496 0.384 1.248 0.192 2.208 0.48v6.048h-5.088q-2.4 0-3.552 1.248-1.056 1.152-1.056 3.36v7.968h9.696v7.104h-9.696v43.392zm45.12 1.152q-7.68 0-12.96-2.784-5.184-2.88-7.968-8.736-2.688-5.856-2.688-14.88 0-9.12 2.688-14.88 2.784-5.856 7.968-8.64 5.28-2.88 12.96-2.88t12.864 2.88q5.28 2.784 7.968 8.64 2.688 5.76 2.688 14.88 0 9.024-2.688 14.88t-7.968 8.736q-5.184 2.784-12.864 2.784zm0-7.104q4.896 0 8.16-1.92t4.896-5.952q1.728-4.128 1.728-10.368v-2.112q0-6.336-1.728-10.368-1.632-4.032-4.896-5.952t-8.16-1.92-8.256 1.92q-3.264 1.92-4.896 5.952t-1.632 10.368v2.112q0 6.24 1.632 10.368 1.632 4.032 4.896 5.952 3.36 1.92 8.256 1.92zm33.984 5.952v-50.496h6.816l0.768 8.352h0.672q0.768-2.4 2.112-4.512 1.344-2.208 3.648-3.552 2.304-1.44 5.664-1.44 1.44 0 2.592 0.288 1.248 0.192 1.824 0.48v7.776h-3.168q-3.264 0-5.664 1.152-2.304 1.056-3.84 3.072t-2.304 4.8q-0.672 2.784-0.672 5.952v28.128zm31.872 0v-50.496h6.816l0.768 7.584h0.672q1.92-3.072 4.32-4.992t5.28-2.784q2.88-0.96 6.24-0.96 4.896 0 8.448 2.016 3.552 1.92 5.28 6.72h0.576q1.824-3.072 4.224-4.896 2.4-1.92 5.376-2.88t6.336-0.96q4.608 0 8.064 1.632 3.456 1.536 5.376 5.184 2.016 3.552 2.016 9.6v35.232h-8.448v-33.888q0-3.072-0.768-5.088-0.672-2.016-2.016-3.072-1.344-1.152-3.168-1.632-1.728-0.48-3.744-0.48-3.36 0-6.24 1.728-2.784 1.728-4.512 4.992t-1.728 7.776v29.664h-8.448v-33.888q0-3.072-0.768-5.088t-2.016-3.072q-1.248-1.152-3.072-1.632-1.728-0.48-3.648-0.48-3.456 0-6.432 1.728-2.88 1.728-4.608 4.992t-1.728 7.776v29.664z" fill="#af16e3" aria-label="lform"/>
 </g>
</svg>
