<?xml version="1.0" encoding="UTF-8" standalone="no"?>
<!-- Created with Inkscape (http://www.inkscape.org/) -->

<svg
   width="138.188"
   height="199.99998"
   viewBox="0 0 138.188 199.99998"
   version="1.1"
   id="svg1"
   xmlns="http://www.w3.org/2000/svg"
   xmlns:svg="http://www.w3.org/2000/svg">
  <defs
     id="defs1" />
  <g
     id="layer1">
    <g
       id="g5"
       transform="matrix(2.4543988,0,0,2.4543988,-222.5355,-186.51505)">
      <rect
         style="fill:#000000;fill-opacity:0;stroke:#af16e3;stroke-width:8.47856;stroke-dasharray:none;stroke-opacity:1"
         id="rect2"
         width="47.823616"
         height="47.823616"
         x="94.90731"
         y="105.4156"
         ry="9.8800888" />
      <path
         style="fill:#000000;fill-opacity:0;stroke:#af16e3;stroke-width:7.08799;stroke-dasharray:none;stroke-opacity:1"
         d="M 107.29162,106.923 V 90.774845 c 0,-14.994962 23.055,-14.974901 23.055,0 v 16.176525"
         id="path2" />
      <path
         d="m 108.44374,143.03716 v -27.41949 h 13.74972 q 3.03772,0 4.99626,1.07919 1.9985,1.07919 2.99776,3.03773 0.99925,1.95853 0.99925,4.6765 0,2.678 -1.03922,4.6765 -1.03923,1.99851 -3.11767,3.11767 -2.03848,1.07919 -5.11618,1.07919 h -8.27381 v 9.75271 z m 5.19611,-14.18939 h 8.11393 q 1.99851,0 3.0777,-1.15913 1.11917,-1.19911 1.11917,-3.27755 0,-1.39896 -0.47965,-2.35824 -0.47964,-0.95928 -1.39895,-1.47889 -0.91931,-0.51961 -2.31827,-0.51961 h -8.11393 z"
         id="text4"
         style="font-weight:600;font-size:39.9701px;font-family:Archivo;-inkscape-font-specification:'Archivo Semi-Bold';fill:#af16e3;stroke-width:1.99851"
         aria-label="P" />
    </g>
  </g>
</svg>
